<?xml version="1.0" encoding="utf-8" standalone="no"?>
<!DOCTYPE svg PUBLIC "-//W3C//DTD SVG 1.1//EN"
  "http://www.w3.org/Graphics/SVG/1.1/DTD/svg11.dtd">
<svg xmlns:xlink="http://www.w3.org/1999/xlink" width="567.391923pt" height="423.3675pt" viewBox="0 0 567.391923 423.3675" xmlns="http://www.w3.org/2000/svg" version="1.1">
 <metadata>
  <rdf:RDF xmlns:dc="http://purl.org/dc/elements/1.1/" xmlns:cc="http://creativecommons.org/ns#" xmlns:rdf="http://www.w3.org/1999/02/22-rdf-syntax-ns#">
   <cc:Work>
    <dc:type rdf:resource="http://purl.org/dc/dcmitype/StillImage"/>
    <dc:date>2025-07-01T17:21:29.190197</dc:date>
    <dc:format>image/svg+xml</dc:format>
    <dc:creator>
     <cc:Agent>
      <dc:title>Matplotlib v3.10.0, https://matplotlib.org/</dc:title>
     </cc:Agent>
    </dc:creator>
   </cc:Work>
  </rdf:RDF>
 </metadata>
 <defs>
  <style type="text/css">*{stroke-linejoin: round; stroke-linecap: butt}</style>
 </defs>
 <g id="figure_1">
  <g id="patch_1">
   <path d="M 0 423.3675 
L 567.391923 423.3675 
L 567.391923 0 
L 0 0 
z
" style="fill: #ffffff"/>
  </g>
  <g id="axes_1">
   <g id="patch_2">
    <path d="M 51.378125 384.158125 
L 555.640873 384.158125 
L 555.640873 22.798125 
L 51.378125 22.798125 
z
" style="fill: #ffffff"/>
   </g>
   <g id="matplotlib.axis_1">
    <g id="xtick_1">
     <g id="line2d_1">
      <defs>
       <path id="m02b8f77ac6" d="M 0 0 
L 0 3.5 
" style="stroke: #000000; stroke-width: 0.8"/>
      </defs>
      <g>
       <use xlink:href="#m02b8f77ac6" x="51.378125" y="384.158125" style="stroke: #000000; stroke-width: 0.8"/>
      </g>
     </g>
     <g id="text_1">
      <!-- 0 -->
      <g transform="translate(48.196875 398.756562) scale(0.1 -0.1)">
       <defs>
        <path id="DejaVuSans-30" d="M 2034 4250 
Q 1547 4250 1301 3770 
Q 1056 3291 1056 2328 
Q 1056 1369 1301 889 
Q 1547 409 2034 409 
Q 2525 409 2770 889 
Q 3016 1369 3016 2328 
Q 3016 3291 2770 3770 
Q 2525 4250 2034 4250 
z
M 2034 4750 
Q 2819 4750 3233 4129 
Q 3647 3509 3647 2328 
Q 3647 1150 3233 529 
Q 2819 -91 2034 -91 
Q 1250 -91 836 529 
Q 422 1150 422 2328 
Q 422 3509 836 4129 
Q 1250 4750 2034 4750 
z
" transform="scale(0.015625)"/>
       </defs>
       <use xlink:href="#DejaVuSans-30"/>
      </g>
     </g>
    </g>
    <g id="xtick_2">
     <g id="line2d_2">
      <g>
       <use xlink:href="#m02b8f77ac6" x="151.232135" y="384.158125" style="stroke: #000000; stroke-width: 0.8"/>
      </g>
     </g>
     <g id="text_2">
      <!-- 20 -->
      <g transform="translate(144.869635 398.756562) scale(0.1 -0.1)">
       <defs>
        <path id="DejaVuSans-32" d="M 1228 531 
L 3431 531 
L 3431 0 
L 469 0 
L 469 531 
Q 828 903 1448 1529 
Q 2069 2156 2228 2338 
Q 2531 2678 2651 2914 
Q 2772 3150 2772 3378 
Q 2772 3750 2511 3984 
Q 2250 4219 1831 4219 
Q 1534 4219 1204 4116 
Q 875 4013 500 3803 
L 500 4441 
Q 881 4594 1212 4672 
Q 1544 4750 1819 4750 
Q 2544 4750 2975 4387 
Q 3406 4025 3406 3419 
Q 3406 3131 3298 2873 
Q 3191 2616 2906 2266 
Q 2828 2175 2409 1742 
Q 1991 1309 1228 531 
z
" transform="scale(0.015625)"/>
       </defs>
       <use xlink:href="#DejaVuSans-32"/>
       <use xlink:href="#DejaVuSans-30" transform="translate(63.623047 0)"/>
      </g>
     </g>
    </g>
    <g id="xtick_3">
     <g id="line2d_3">
      <g>
       <use xlink:href="#m02b8f77ac6" x="251.086144" y="384.158125" style="stroke: #000000; stroke-width: 0.8"/>
      </g>
     </g>
     <g id="text_3">
      <!-- 40 -->
      <g transform="translate(244.723644 398.756562) scale(0.1 -0.1)">
       <defs>
        <path id="DejaVuSans-34" d="M 2419 4116 
L 825 1625 
L 2419 1625 
L 2419 4116 
z
M 2253 4666 
L 3047 4666 
L 3047 1625 
L 3713 1625 
L 3713 1100 
L 3047 1100 
L 3047 0 
L 2419 0 
L 2419 1100 
L 313 1100 
L 313 1709 
L 2253 4666 
z
" transform="scale(0.015625)"/>
       </defs>
       <use xlink:href="#DejaVuSans-34"/>
       <use xlink:href="#DejaVuSans-30" transform="translate(63.623047 0)"/>
      </g>
     </g>
    </g>
    <g id="xtick_4">
     <g id="line2d_4">
      <g>
       <use xlink:href="#m02b8f77ac6" x="350.940154" y="384.158125" style="stroke: #000000; stroke-width: 0.8"/>
      </g>
     </g>
     <g id="text_4">
      <!-- 60 -->
      <g transform="translate(344.577654 398.756562) scale(0.1 -0.1)">
       <defs>
        <path id="DejaVuSans-36" d="M 2113 2584 
Q 1688 2584 1439 2293 
Q 1191 2003 1191 1497 
Q 1191 994 1439 701 
Q 1688 409 2113 409 
Q 2538 409 2786 701 
Q 3034 994 3034 1497 
Q 3034 2003 2786 2293 
Q 2538 2584 2113 2584 
z
M 3366 4563 
L 3366 3988 
Q 3128 4100 2886 4159 
Q 2644 4219 2406 4219 
Q 1781 4219 1451 3797 
Q 1122 3375 1075 2522 
Q 1259 2794 1537 2939 
Q 1816 3084 2150 3084 
Q 2853 3084 3261 2657 
Q 3669 2231 3669 1497 
Q 3669 778 3244 343 
Q 2819 -91 2113 -91 
Q 1303 -91 875 529 
Q 447 1150 447 2328 
Q 447 3434 972 4092 
Q 1497 4750 2381 4750 
Q 2619 4750 2861 4703 
Q 3103 4656 3366 4563 
z
" transform="scale(0.015625)"/>
       </defs>
       <use xlink:href="#DejaVuSans-36"/>
       <use xlink:href="#DejaVuSans-30" transform="translate(63.623047 0)"/>
      </g>
     </g>
    </g>
    <g id="xtick_5">
     <g id="line2d_5">
      <g>
       <use xlink:href="#m02b8f77ac6" x="450.794163" y="384.158125" style="stroke: #000000; stroke-width: 0.8"/>
      </g>
     </g>
     <g id="text_5">
      <!-- 80 -->
      <g transform="translate(444.431663 398.756562) scale(0.1 -0.1)">
       <defs>
        <path id="DejaVuSans-38" d="M 2034 2216 
Q 1584 2216 1326 1975 
Q 1069 1734 1069 1313 
Q 1069 891 1326 650 
Q 1584 409 2034 409 
Q 2484 409 2743 651 
Q 3003 894 3003 1313 
Q 3003 1734 2745 1975 
Q 2488 2216 2034 2216 
z
M 1403 2484 
Q 997 2584 770 2862 
Q 544 3141 544 3541 
Q 544 4100 942 4425 
Q 1341 4750 2034 4750 
Q 2731 4750 3128 4425 
Q 3525 4100 3525 3541 
Q 3525 3141 3298 2862 
Q 3072 2584 2669 2484 
Q 3125 2378 3379 2068 
Q 3634 1759 3634 1313 
Q 3634 634 3220 271 
Q 2806 -91 2034 -91 
Q 1263 -91 848 271 
Q 434 634 434 1313 
Q 434 1759 690 2068 
Q 947 2378 1403 2484 
z
M 1172 3481 
Q 1172 3119 1398 2916 
Q 1625 2713 2034 2713 
Q 2441 2713 2670 2916 
Q 2900 3119 2900 3481 
Q 2900 3844 2670 4047 
Q 2441 4250 2034 4250 
Q 1625 4250 1398 4047 
Q 1172 3844 1172 3481 
z
" transform="scale(0.015625)"/>
       </defs>
       <use xlink:href="#DejaVuSans-38"/>
       <use xlink:href="#DejaVuSans-30" transform="translate(63.623047 0)"/>
      </g>
     </g>
    </g>
    <g id="xtick_6">
     <g id="line2d_6">
      <g>
       <use xlink:href="#m02b8f77ac6" x="550.648173" y="384.158125" style="stroke: #000000; stroke-width: 0.8"/>
      </g>
     </g>
     <g id="text_6">
      <!-- 100 -->
      <g transform="translate(541.104423 398.756562) scale(0.1 -0.1)">
       <defs>
        <path id="DejaVuSans-31" d="M 794 531 
L 1825 531 
L 1825 4091 
L 703 3866 
L 703 4441 
L 1819 4666 
L 2450 4666 
L 2450 531 
L 3481 531 
L 3481 0 
L 794 0 
L 794 531 
z
" transform="scale(0.015625)"/>
       </defs>
       <use xlink:href="#DejaVuSans-31"/>
       <use xlink:href="#DejaVuSans-30" transform="translate(63.623047 0)"/>
       <use xlink:href="#DejaVuSans-30" transform="translate(127.246094 0)"/>
      </g>
     </g>
    </g>
    <g id="text_7">
     <!-- Época -->
     <g transform="translate(288.303249 414.087812) scale(0.1 -0.1)">
      <defs>
       <path id="DejaVuSans-c9" d="M 628 4666 
L 3578 4666 
L 3578 4134 
L 1259 4134 
L 1259 2753 
L 3481 2753 
L 3481 2222 
L 1259 2222 
L 1259 531 
L 3634 531 
L 3634 0 
L 628 0 
L 628 4666 
z
M 2268 5921 
L 2846 5921 
L 2134 5096 
L 1655 5096 
L 2268 5921 
z
" transform="scale(0.015625)"/>
       <path id="DejaVuSans-70" d="M 1159 525 
L 1159 -1331 
L 581 -1331 
L 581 3500 
L 1159 3500 
L 1159 2969 
Q 1341 3281 1617 3432 
Q 1894 3584 2278 3584 
Q 2916 3584 3314 3078 
Q 3713 2572 3713 1747 
Q 3713 922 3314 415 
Q 2916 -91 2278 -91 
Q 1894 -91 1617 61 
Q 1341 213 1159 525 
z
M 3116 1747 
Q 3116 2381 2855 2742 
Q 2594 3103 2138 3103 
Q 1681 3103 1420 2742 
Q 1159 2381 1159 1747 
Q 1159 1113 1420 752 
Q 1681 391 2138 391 
Q 2594 391 2855 752 
Q 3116 1113 3116 1747 
z
" transform="scale(0.015625)"/>
       <path id="DejaVuSans-6f" d="M 1959 3097 
Q 1497 3097 1228 2736 
Q 959 2375 959 1747 
Q 959 1119 1226 758 
Q 1494 397 1959 397 
Q 2419 397 2687 759 
Q 2956 1122 2956 1747 
Q 2956 2369 2687 2733 
Q 2419 3097 1959 3097 
z
M 1959 3584 
Q 2709 3584 3137 3096 
Q 3566 2609 3566 1747 
Q 3566 888 3137 398 
Q 2709 -91 1959 -91 
Q 1206 -91 779 398 
Q 353 888 353 1747 
Q 353 2609 779 3096 
Q 1206 3584 1959 3584 
z
" transform="scale(0.015625)"/>
       <path id="DejaVuSans-63" d="M 3122 3366 
L 3122 2828 
Q 2878 2963 2633 3030 
Q 2388 3097 2138 3097 
Q 1578 3097 1268 2742 
Q 959 2388 959 1747 
Q 959 1106 1268 751 
Q 1578 397 2138 397 
Q 2388 397 2633 464 
Q 2878 531 3122 666 
L 3122 134 
Q 2881 22 2623 -34 
Q 2366 -91 2075 -91 
Q 1284 -91 818 406 
Q 353 903 353 1747 
Q 353 2603 823 3093 
Q 1294 3584 2113 3584 
Q 2378 3584 2631 3529 
Q 2884 3475 3122 3366 
z
" transform="scale(0.015625)"/>
       <path id="DejaVuSans-61" d="M 2194 1759 
Q 1497 1759 1228 1600 
Q 959 1441 959 1056 
Q 959 750 1161 570 
Q 1363 391 1709 391 
Q 2188 391 2477 730 
Q 2766 1069 2766 1631 
L 2766 1759 
L 2194 1759 
z
M 3341 1997 
L 3341 0 
L 2766 0 
L 2766 531 
Q 2569 213 2275 61 
Q 1981 -91 1556 -91 
Q 1019 -91 701 211 
Q 384 513 384 1019 
Q 384 1609 779 1909 
Q 1175 2209 1959 2209 
L 2766 2209 
L 2766 2266 
Q 2766 2663 2505 2880 
Q 2244 3097 1772 3097 
Q 1472 3097 1187 3025 
Q 903 2953 641 2809 
L 641 3341 
Q 956 3463 1253 3523 
Q 1550 3584 1831 3584 
Q 2591 3584 2966 3190 
Q 3341 2797 3341 1997 
z
" transform="scale(0.015625)"/>
      </defs>
      <use xlink:href="#DejaVuSans-c9"/>
      <use xlink:href="#DejaVuSans-70" transform="translate(63.183594 0)"/>
      <use xlink:href="#DejaVuSans-6f" transform="translate(126.660156 0)"/>
      <use xlink:href="#DejaVuSans-63" transform="translate(187.841797 0)"/>
      <use xlink:href="#DejaVuSans-61" transform="translate(242.822266 0)"/>
     </g>
    </g>
   </g>
   <g id="matplotlib.axis_2">
    <g id="ytick_1">
     <g id="line2d_7">
      <defs>
       <path id="m46b4ba0301" d="M 0 0 
L -3.5 0 
" style="stroke: #000000; stroke-width: 0.8"/>
      </defs>
      <g>
       <use xlink:href="#m46b4ba0301" x="51.378125" y="322.843408" style="stroke: #000000; stroke-width: 0.8"/>
      </g>
     </g>
     <g id="text_8">
      <!-- $\mathdefault{10^{-3}}$ -->
      <g transform="translate(20.878125 326.642626) scale(0.1 -0.1)">
       <defs>
        <path id="DejaVuSans-2212" d="M 678 2272 
L 4684 2272 
L 4684 1741 
L 678 1741 
L 678 2272 
z
" transform="scale(0.015625)"/>
        <path id="DejaVuSans-33" d="M 2597 2516 
Q 3050 2419 3304 2112 
Q 3559 1806 3559 1356 
Q 3559 666 3084 287 
Q 2609 -91 1734 -91 
Q 1441 -91 1130 -33 
Q 819 25 488 141 
L 488 750 
Q 750 597 1062 519 
Q 1375 441 1716 441 
Q 2309 441 2620 675 
Q 2931 909 2931 1356 
Q 2931 1769 2642 2001 
Q 2353 2234 1838 2234 
L 1294 2234 
L 1294 2753 
L 1863 2753 
Q 2328 2753 2575 2939 
Q 2822 3125 2822 3475 
Q 2822 3834 2567 4026 
Q 2313 4219 1838 4219 
Q 1578 4219 1281 4162 
Q 984 4106 628 3988 
L 628 4550 
Q 988 4650 1302 4700 
Q 1616 4750 1894 4750 
Q 2613 4750 3031 4423 
Q 3450 4097 3450 3541 
Q 3450 3153 3228 2886 
Q 3006 2619 2597 2516 
z
" transform="scale(0.015625)"/>
       </defs>
       <use xlink:href="#DejaVuSans-31" transform="translate(0 0.765625)"/>
       <use xlink:href="#DejaVuSans-30" transform="translate(63.623047 0.765625)"/>
       <use xlink:href="#DejaVuSans-2212" transform="translate(128.203125 39.046875) scale(0.7)"/>
       <use xlink:href="#DejaVuSans-33" transform="translate(186.855469 39.046875) scale(0.7)"/>
      </g>
     </g>
    </g>
    <g id="ytick_2">
     <g id="line2d_8">
      <g>
       <use xlink:href="#m46b4ba0301" x="51.378125" y="236.667661" style="stroke: #000000; stroke-width: 0.8"/>
      </g>
     </g>
     <g id="text_9">
      <!-- $\mathdefault{10^{-2}}$ -->
      <g transform="translate(20.878125 240.46688) scale(0.1 -0.1)">
       <use xlink:href="#DejaVuSans-31" transform="translate(0 0.765625)"/>
       <use xlink:href="#DejaVuSans-30" transform="translate(63.623047 0.765625)"/>
       <use xlink:href="#DejaVuSans-2212" transform="translate(128.203125 39.046875) scale(0.7)"/>
       <use xlink:href="#DejaVuSans-32" transform="translate(186.855469 39.046875) scale(0.7)"/>
      </g>
     </g>
    </g>
    <g id="ytick_3">
     <g id="line2d_9">
      <g>
       <use xlink:href="#m46b4ba0301" x="51.378125" y="150.491914" style="stroke: #000000; stroke-width: 0.8"/>
      </g>
     </g>
     <g id="text_10">
      <!-- $\mathdefault{10^{-1}}$ -->
      <g transform="translate(20.878125 154.291133) scale(0.1 -0.1)">
       <use xlink:href="#DejaVuSans-31" transform="translate(0 0.684375)"/>
       <use xlink:href="#DejaVuSans-30" transform="translate(63.623047 0.684375)"/>
       <use xlink:href="#DejaVuSans-2212" transform="translate(128.203125 38.965625) scale(0.7)"/>
       <use xlink:href="#DejaVuSans-31" transform="translate(186.855469 38.965625) scale(0.7)"/>
      </g>
     </g>
    </g>
    <g id="ytick_4">
     <g id="line2d_10">
      <g>
       <use xlink:href="#m46b4ba0301" x="51.378125" y="64.316167" style="stroke: #000000; stroke-width: 0.8"/>
      </g>
     </g>
     <g id="text_11">
      <!-- $\mathdefault{10^{0}}$ -->
      <g transform="translate(26.778125 68.115386) scale(0.1 -0.1)">
       <use xlink:href="#DejaVuSans-31" transform="translate(0 0.765625)"/>
       <use xlink:href="#DejaVuSans-30" transform="translate(63.623047 0.765625)"/>
       <use xlink:href="#DejaVuSans-30" transform="translate(128.203125 39.046875) scale(0.7)"/>
      </g>
     </g>
    </g>
    <g id="ytick_5">
     <g id="line2d_11">
      <defs>
       <path id="mde017e015d" d="M 0 0 
L -2 0 
" style="stroke: #000000; stroke-width: 0.6"/>
      </defs>
      <g>
       <use xlink:href="#mde017e015d" x="51.378125" y="383.07767" style="stroke: #000000; stroke-width: 0.6"/>
      </g>
     </g>
    </g>
    <g id="ytick_6">
     <g id="line2d_12">
      <g>
       <use xlink:href="#mde017e015d" x="51.378125" y="367.902874" style="stroke: #000000; stroke-width: 0.6"/>
      </g>
     </g>
    </g>
    <g id="ytick_7">
     <g id="line2d_13">
      <g>
       <use xlink:href="#mde017e015d" x="51.378125" y="357.136185" style="stroke: #000000; stroke-width: 0.6"/>
      </g>
     </g>
    </g>
    <g id="ytick_8">
     <g id="line2d_14">
      <g>
       <use xlink:href="#mde017e015d" x="51.378125" y="348.784892" style="stroke: #000000; stroke-width: 0.6"/>
      </g>
     </g>
    </g>
    <g id="ytick_9">
     <g id="line2d_15">
      <g>
       <use xlink:href="#mde017e015d" x="51.378125" y="341.961389" style="stroke: #000000; stroke-width: 0.6"/>
      </g>
     </g>
    </g>
    <g id="ytick_10">
     <g id="line2d_16">
      <g>
       <use xlink:href="#mde017e015d" x="51.378125" y="336.1922" style="stroke: #000000; stroke-width: 0.6"/>
      </g>
     </g>
    </g>
    <g id="ytick_11">
     <g id="line2d_17">
      <g>
       <use xlink:href="#mde017e015d" x="51.378125" y="331.1947" style="stroke: #000000; stroke-width: 0.6"/>
      </g>
     </g>
    </g>
    <g id="ytick_12">
     <g id="line2d_18">
      <g>
       <use xlink:href="#mde017e015d" x="51.378125" y="326.786593" style="stroke: #000000; stroke-width: 0.6"/>
      </g>
     </g>
    </g>
    <g id="ytick_13">
     <g id="line2d_19">
      <g>
       <use xlink:href="#mde017e015d" x="51.378125" y="296.901923" style="stroke: #000000; stroke-width: 0.6"/>
      </g>
     </g>
    </g>
    <g id="ytick_14">
     <g id="line2d_20">
      <g>
       <use xlink:href="#mde017e015d" x="51.378125" y="281.727127" style="stroke: #000000; stroke-width: 0.6"/>
      </g>
     </g>
    </g>
    <g id="ytick_15">
     <g id="line2d_21">
      <g>
       <use xlink:href="#mde017e015d" x="51.378125" y="270.960438" style="stroke: #000000; stroke-width: 0.6"/>
      </g>
     </g>
    </g>
    <g id="ytick_16">
     <g id="line2d_22">
      <g>
       <use xlink:href="#mde017e015d" x="51.378125" y="262.609145" style="stroke: #000000; stroke-width: 0.6"/>
      </g>
     </g>
    </g>
    <g id="ytick_17">
     <g id="line2d_23">
      <g>
       <use xlink:href="#mde017e015d" x="51.378125" y="255.785642" style="stroke: #000000; stroke-width: 0.6"/>
      </g>
     </g>
    </g>
    <g id="ytick_18">
     <g id="line2d_24">
      <g>
       <use xlink:href="#mde017e015d" x="51.378125" y="250.016453" style="stroke: #000000; stroke-width: 0.6"/>
      </g>
     </g>
    </g>
    <g id="ytick_19">
     <g id="line2d_25">
      <g>
       <use xlink:href="#mde017e015d" x="51.378125" y="245.018954" style="stroke: #000000; stroke-width: 0.6"/>
      </g>
     </g>
    </g>
    <g id="ytick_20">
     <g id="line2d_26">
      <g>
       <use xlink:href="#mde017e015d" x="51.378125" y="240.610847" style="stroke: #000000; stroke-width: 0.6"/>
      </g>
     </g>
    </g>
    <g id="ytick_21">
     <g id="line2d_27">
      <g>
       <use xlink:href="#mde017e015d" x="51.378125" y="210.726176" style="stroke: #000000; stroke-width: 0.6"/>
      </g>
     </g>
    </g>
    <g id="ytick_22">
     <g id="line2d_28">
      <g>
       <use xlink:href="#mde017e015d" x="51.378125" y="195.55138" style="stroke: #000000; stroke-width: 0.6"/>
      </g>
     </g>
    </g>
    <g id="ytick_23">
     <g id="line2d_29">
      <g>
       <use xlink:href="#mde017e015d" x="51.378125" y="184.784691" style="stroke: #000000; stroke-width: 0.6"/>
      </g>
     </g>
    </g>
    <g id="ytick_24">
     <g id="line2d_30">
      <g>
       <use xlink:href="#mde017e015d" x="51.378125" y="176.433399" style="stroke: #000000; stroke-width: 0.6"/>
      </g>
     </g>
    </g>
    <g id="ytick_25">
     <g id="line2d_31">
      <g>
       <use xlink:href="#mde017e015d" x="51.378125" y="169.609896" style="stroke: #000000; stroke-width: 0.6"/>
      </g>
     </g>
    </g>
    <g id="ytick_26">
     <g id="line2d_32">
      <g>
       <use xlink:href="#mde017e015d" x="51.378125" y="163.840706" style="stroke: #000000; stroke-width: 0.6"/>
      </g>
     </g>
    </g>
    <g id="ytick_27">
     <g id="line2d_33">
      <g>
       <use xlink:href="#mde017e015d" x="51.378125" y="158.843207" style="stroke: #000000; stroke-width: 0.6"/>
      </g>
     </g>
    </g>
    <g id="ytick_28">
     <g id="line2d_34">
      <g>
       <use xlink:href="#mde017e015d" x="51.378125" y="154.4351" style="stroke: #000000; stroke-width: 0.6"/>
      </g>
     </g>
    </g>
    <g id="ytick_29">
     <g id="line2d_35">
      <g>
       <use xlink:href="#mde017e015d" x="51.378125" y="124.550429" style="stroke: #000000; stroke-width: 0.6"/>
      </g>
     </g>
    </g>
    <g id="ytick_30">
     <g id="line2d_36">
      <g>
       <use xlink:href="#mde017e015d" x="51.378125" y="109.375634" style="stroke: #000000; stroke-width: 0.6"/>
      </g>
     </g>
    </g>
    <g id="ytick_31">
     <g id="line2d_37">
      <g>
       <use xlink:href="#mde017e015d" x="51.378125" y="98.608945" style="stroke: #000000; stroke-width: 0.6"/>
      </g>
     </g>
    </g>
    <g id="ytick_32">
     <g id="line2d_38">
      <g>
       <use xlink:href="#mde017e015d" x="51.378125" y="90.257652" style="stroke: #000000; stroke-width: 0.6"/>
      </g>
     </g>
    </g>
    <g id="ytick_33">
     <g id="line2d_39">
      <g>
       <use xlink:href="#mde017e015d" x="51.378125" y="83.434149" style="stroke: #000000; stroke-width: 0.6"/>
      </g>
     </g>
    </g>
    <g id="ytick_34">
     <g id="line2d_40">
      <g>
       <use xlink:href="#mde017e015d" x="51.378125" y="77.664959" style="stroke: #000000; stroke-width: 0.6"/>
      </g>
     </g>
    </g>
    <g id="ytick_35">
     <g id="line2d_41">
      <g>
       <use xlink:href="#mde017e015d" x="51.378125" y="72.66746" style="stroke: #000000; stroke-width: 0.6"/>
      </g>
     </g>
    </g>
    <g id="ytick_36">
     <g id="line2d_42">
      <g>
       <use xlink:href="#mde017e015d" x="51.378125" y="68.259353" style="stroke: #000000; stroke-width: 0.6"/>
      </g>
     </g>
    </g>
    <g id="ytick_37">
     <g id="line2d_43">
      <g>
       <use xlink:href="#mde017e015d" x="51.378125" y="38.374683" style="stroke: #000000; stroke-width: 0.6"/>
      </g>
     </g>
    </g>
    <g id="ytick_38">
     <g id="line2d_44">
      <g>
       <use xlink:href="#mde017e015d" x="51.378125" y="23.199887" style="stroke: #000000; stroke-width: 0.6"/>
      </g>
     </g>
    </g>
    <g id="text_12">
     <!-- Loss -->
     <g transform="translate(14.798438 214.445312) rotate(-90) scale(0.1 -0.1)">
      <defs>
       <path id="DejaVuSans-4c" d="M 628 4666 
L 1259 4666 
L 1259 531 
L 3531 531 
L 3531 0 
L 628 0 
L 628 4666 
z
" transform="scale(0.015625)"/>
       <path id="DejaVuSans-73" d="M 2834 3397 
L 2834 2853 
Q 2591 2978 2328 3040 
Q 2066 3103 1784 3103 
Q 1356 3103 1142 2972 
Q 928 2841 928 2578 
Q 928 2378 1081 2264 
Q 1234 2150 1697 2047 
L 1894 2003 
Q 2506 1872 2764 1633 
Q 3022 1394 3022 966 
Q 3022 478 2636 193 
Q 2250 -91 1575 -91 
Q 1294 -91 989 -36 
Q 684 19 347 128 
L 347 722 
Q 666 556 975 473 
Q 1284 391 1588 391 
Q 1994 391 2212 530 
Q 2431 669 2431 922 
Q 2431 1156 2273 1281 
Q 2116 1406 1581 1522 
L 1381 1569 
Q 847 1681 609 1914 
Q 372 2147 372 2553 
Q 372 3047 722 3315 
Q 1072 3584 1716 3584 
Q 2034 3584 2315 3537 
Q 2597 3491 2834 3397 
z
" transform="scale(0.015625)"/>
      </defs>
      <use xlink:href="#DejaVuSans-4c"/>
      <use xlink:href="#DejaVuSans-6f" transform="translate(53.962891 0)"/>
      <use xlink:href="#DejaVuSans-73" transform="translate(115.144531 0)"/>
      <use xlink:href="#DejaVuSans-73" transform="translate(167.244141 0)"/>
     </g>
    </g>
   </g>
   <g id="line2d_45">
    <path d="M 56.370825 74.676089 
L 61.363526 118.3835 
L 66.356226 135.192303 
L 71.348927 152.471655 
L 76.341627 168.498112 
L 81.334328 185.208281 
L 86.327028 202.210362 
L 91.319729 220.88187 
L 96.312429 230.866955 
L 101.30513 242.339481 
L 106.29783 251.678895 
L 111.290531 259.946417 
L 116.283231 264.819406 
L 121.275932 269.20128 
L 126.268632 270.632768 
L 131.261333 276.391414 
L 136.254033 280.433656 
L 141.246734 284.117762 
L 146.239434 285.978271 
L 151.232135 289.134063 
L 156.224835 291.753767 
L 161.217535 293.580829 
L 166.210236 295.766687 
L 171.202936 298.047154 
L 176.195637 299.568393 
L 181.188337 301.651502 
L 186.181038 303.301868 
L 191.173738 304.747655 
L 196.166439 306.007838 
L 201.159139 307.5002 
L 206.15184 308.716473 
L 211.14454 310.5261 
L 216.137241 311.472009 
L 221.129941 312.528349 
L 226.122642 314.24788 
L 231.115342 315.293313 
L 236.108043 316.384113 
L 241.100743 317.383666 
L 246.093444 318.346513 
L 251.086144 319.389897 
L 256.078845 320.235493 
L 261.071545 321.279703 
L 266.064245 322.000153 
L 271.056946 322.947388 
L 276.049646 323.971759 
L 281.042347 324.672894 
L 286.035047 325.331706 
L 291.027748 326.058092 
L 296.020448 326.947792 
L 301.013149 327.485806 
L 306.005849 328.298402 
L 310.99855 329.002551 
L 315.99125 329.573558 
L 320.983951 330.275787 
L 325.976651 330.765366 
L 330.969352 331.535807 
L 335.962052 332.118445 
L 340.954753 332.601112 
L 345.947453 333.30978 
L 350.940154 333.803854 
L 355.932854 334.333887 
L 360.925555 334.961212 
L 365.918255 335.325807 
L 370.910955 335.943029 
L 375.903656 336.448769 
L 380.896356 336.856323 
L 385.889057 337.361349 
L 390.881757 337.819559 
L 395.874458 338.259099 
L 400.867158 338.687579 
L 405.859859 338.948827 
L 410.852559 339.578958 
L 415.84526 339.941674 
L 420.83796 340.311498 
L 425.830661 340.755467 
L 430.823361 341.111657 
L 435.816062 341.473271 
L 440.808762 341.939894 
L 445.801463 342.287427 
L 450.794163 342.62238 
L 455.786864 342.92367 
L 460.779564 343.338016 
L 465.772265 343.693193 
L 470.764965 344.056266 
L 475.757665 344.30613 
L 480.750366 344.673193 
L 485.743066 344.900727 
L 490.735767 345.220702 
L 495.728467 345.560738 
L 500.721168 345.878479 
L 505.713868 346.160127 
L 510.706569 346.436197 
L 515.699269 346.764889 
L 520.69197 346.994747 
L 525.68467 347.252184 
L 530.677371 347.36033 
L 535.670071 347.768939 
L 540.662772 348.086765 
L 545.655472 348.389139 
L 550.648173 348.678982 
" clip-path="url(#p8cf6b087cb)" style="fill: none; stroke: #1f77b4; stroke-width: 1.5; stroke-linecap: square"/>
   </g>
   <g id="line2d_46">
    <path d="M 56.370825 59.509988 
L 61.363526 112.605081 
L 66.356226 135.928984 
L 71.348927 151.829294 
L 76.341627 166.822409 
L 81.334328 180.982727 
L 86.327028 209.121665 
L 91.319729 216.431567 
L 96.312429 252.587192 
L 101.30513 279.634432 
L 106.29783 304.216624 
L 111.290531 315.209793 
L 116.283231 324.475524 
L 121.275932 330.866506 
L 126.268632 334.472278 
L 131.261333 337.281505 
L 136.254033 339.650927 
L 141.246734 341.72045 
L 146.239434 343.382621 
L 151.232135 344.884593 
L 156.224835 346.204285 
L 161.217535 347.497009 
L 166.210236 348.582359 
L 171.202936 349.526615 
L 176.195637 350.466304 
L 181.188337 351.309393 
L 186.181038 352.037571 
L 191.173738 352.779675 
L 196.166439 353.50389 
L 201.159139 354.145181 
L 206.15184 354.760584 
L 211.14454 355.198032 
L 216.137241 355.860491 
L 221.129941 356.303316 
L 226.122642 356.835923 
L 231.115342 357.313556 
L 236.108043 357.726272 
L 241.100743 358.201593 
L 246.093444 358.517932 
L 251.086144 358.893292 
L 256.078845 359.270188 
L 261.071545 359.578199 
L 266.064245 359.842874 
L 271.056946 360.181282 
L 276.049646 360.518167 
L 281.042347 360.819071 
L 286.035047 361.084367 
L 291.027748 361.317645 
L 296.020448 361.583265 
L 301.013149 361.827999 
L 306.005849 362.040663 
L 310.99855 362.278556 
L 315.99125 362.476206 
L 320.983951 362.679727 
L 325.976651 362.876988 
L 330.969352 363.085906 
L 335.962052 363.262338 
L 340.954753 363.426248 
L 345.947453 363.597372 
L 350.940154 363.772268 
L 355.932854 363.927286 
L 360.925555 364.063638 
L 365.918255 364.2273 
L 370.910955 364.388792 
L 375.903656 364.530733 
L 380.896356 364.669134 
L 385.889057 364.798737 
L 390.881757 364.918902 
L 395.874458 365.0482 
L 400.867158 365.174729 
L 405.859859 365.293563 
L 410.852559 365.404387 
L 415.84526 365.512653 
L 420.83796 365.628251 
L 425.830661 365.744031 
L 430.823361 365.849432 
L 435.816062 365.953919 
L 440.808762 366.041409 
L 445.801463 366.139763 
L 450.794163 366.239304 
L 455.786864 366.314969 
L 460.779564 366.41425 
L 465.772265 366.504174 
L 470.764965 366.580291 
L 475.757665 366.660257 
L 480.750366 366.760549 
L 485.743066 366.841567 
L 490.735767 366.911881 
L 495.728467 366.988082 
L 500.721168 367.056438 
L 505.713868 367.140905 
L 510.706569 367.206792 
L 515.699269 367.282316 
L 520.69197 367.349181 
L 525.68467 367.420574 
L 530.677371 367.48333 
L 535.670071 367.5577 
L 540.662772 367.608076 
L 545.655472 367.676276 
L 550.648173 367.73267 
" clip-path="url(#p8cf6b087cb)" style="fill: none; stroke: #ff7f0e; stroke-width: 1.5; stroke-linecap: square"/>
   </g>
   <g id="line2d_47">
    <path d="M 56.370825 45.191599 
L 61.363526 87.862194 
L 66.356226 112.505945 
L 71.348927 113.110032 
L 76.341627 127.294356 
L 81.334328 141.23066 
L 86.327028 148.477401 
L 91.319729 155.666358 
L 96.312429 142.416268 
L 101.30513 162.23306 
L 106.29783 170.48975 
L 111.290531 180.74408 
L 116.283231 183.884538 
L 121.275932 180.298417 
L 126.268632 175.319604 
L 131.261333 186.48861 
L 136.254033 171.109292 
L 141.246734 164.379102 
L 146.239434 176.027809 
L 151.232135 184.199394 
L 156.224835 197.444155 
L 161.217535 183.950112 
L 166.210236 202.959454 
L 171.202936 197.477808 
L 176.195637 188.207129 
L 181.188337 191.054535 
L 186.181038 219.726647 
L 191.173738 225.127972 
L 196.166439 242.72967 
L 201.159139 255.845587 
L 206.15184 240.876793 
L 211.14454 264.341316 
L 216.137241 250.903665 
L 221.129941 222.431558 
L 226.122642 183.724273 
L 231.115342 208.708467 
L 236.108043 226.410041 
L 241.100743 239.677811 
L 246.093444 197.062815 
L 251.086144 210.194637 
L 256.078845 201.906861 
L 261.071545 231.387972 
L 266.064245 247.469736 
L 271.056946 224.339753 
L 276.049646 299.96927 
L 281.042347 321.221036 
L 286.035047 326.889692 
L 291.027748 330.320159 
L 296.020448 332.23957 
L 301.013149 333.794642 
L 306.005849 334.949836 
L 310.99855 335.844586 
L 315.99125 336.810598 
L 320.983951 337.6838 
L 325.976651 338.211891 
L 330.969352 338.675849 
L 335.962052 339.090306 
L 340.954753 339.466652 
L 345.947453 339.778349 
L 350.940154 340.102359 
L 355.932854 340.393199 
L 360.925555 340.652832 
L 365.918255 340.899764 
L 370.910955 341.132426 
L 375.903656 341.348497 
L 380.896356 341.547684 
L 385.889057 341.73701 
L 390.881757 341.911332 
L 395.874458 342.084418 
L 400.867158 342.231345 
L 405.859859 342.383768 
L 410.852559 342.530339 
L 415.84526 342.668131 
L 420.83796 342.801459 
L 425.830661 342.924847 
L 430.823361 343.042113 
L 435.816062 343.157251 
L 440.808762 343.269964 
L 445.801463 343.373621 
L 450.794163 343.472688 
L 455.786864 343.565198 
L 460.779564 343.661393 
L 465.772265 343.74192 
L 470.764965 343.832751 
L 475.757665 343.915462 
L 480.750366 343.991934 
L 485.743066 344.065951 
L 490.735767 344.141802 
L 495.728467 344.211919 
L 500.721168 344.280798 
L 505.713868 344.344056 
L 510.706569 344.405222 
L 515.699269 344.468086 
L 520.69197 344.524387 
L 525.68467 344.583184 
L 530.677371 344.639135 
L 535.670071 344.692057 
L 540.662772 344.742732 
L 545.655472 344.795444 
L 550.648173 344.842829 
" clip-path="url(#p8cf6b087cb)" style="fill: none; stroke: #2ca02c; stroke-width: 1.5; stroke-linecap: square"/>
   </g>
   <g id="line2d_48">
    <path d="M 56.370825 77.802852 
L 61.363526 119.481844 
L 66.356226 138.922633 
L 71.348927 158.641243 
L 76.341627 171.572714 
L 81.334328 194.641351 
L 86.327028 216.31647 
L 91.319729 225.38382 
L 96.312429 238.536109 
L 101.30513 251.260903 
L 106.29783 259.236706 
L 111.290531 264.629742 
L 116.283231 270.380409 
L 121.275932 274.090797 
L 126.268632 277.869554 
L 131.261333 281.377674 
L 136.254033 284.459245 
L 141.246734 286.962336 
L 146.239434 289.349558 
L 151.232135 291.814515 
L 156.224835 294.275563 
L 161.217535 296.171041 
L 166.210236 298.034542 
L 171.202936 300.146392 
L 176.195637 301.69572 
L 181.188337 303.508988 
L 186.181038 304.957218 
L 191.173738 306.272654 
L 196.166439 308.008661 
L 201.159139 309.240214 
L 206.15184 310.518836 
L 211.14454 311.4209 
L 216.137241 312.897487 
L 221.129941 313.94176 
L 226.122642 314.97076 
L 231.115342 316.157691 
L 236.108043 317.010256 
L 241.100743 318.042727 
L 246.093444 318.941544 
L 251.086144 319.824937 
L 256.078845 320.690172 
L 261.071545 321.60772 
L 266.064245 322.243533 
L 271.056946 322.913358 
L 276.049646 323.779887 
L 281.042347 324.651139 
L 286.035047 325.343936 
L 291.027748 325.903945 
L 296.020448 326.621646 
L 301.013149 327.262656 
L 306.005849 327.803336 
L 310.99855 328.497948 
L 315.99125 329.045358 
L 320.983951 329.663261 
L 325.976651 330.136467 
L 330.969352 330.653716 
L 335.962052 331.083443 
L 340.954753 331.767707 
L 345.947453 332.315156 
L 350.940154 332.736697 
L 355.932854 333.265027 
L 360.925555 333.760259 
L 365.918255 334.200676 
L 370.910955 334.607367 
L 375.903656 335.132268 
L 380.896356 335.564853 
L 385.889057 335.999556 
L 390.881757 336.363684 
L 395.874458 336.78743 
L 400.867158 337.184623 
L 405.859859 337.563832 
L 410.852559 337.920796 
L 415.84526 338.33142 
L 420.83796 338.681771 
L 425.830661 339.056642 
L 430.823361 339.367839 
L 435.816062 339.742427 
L 440.808762 340.071005 
L 445.801463 340.369786 
L 450.794163 340.656925 
L 455.786864 341.051272 
L 460.779564 341.322348 
L 465.772265 341.595545 
L 470.764965 341.841439 
L 475.757665 342.210443 
L 480.750366 342.464397 
L 485.743066 342.752478 
L 490.735767 343.009807 
L 495.728467 343.261328 
L 500.721168 343.557391 
L 505.713868 343.81233 
L 510.706569 344.100344 
L 515.699269 344.332043 
L 520.69197 344.5971 
L 525.68467 344.821495 
L 530.677371 345.08472 
L 535.670071 345.313521 
L 540.662772 345.509536 
L 545.655472 345.774583 
L 550.648173 345.992837 
" clip-path="url(#p8cf6b087cb)" style="fill: none; stroke: #d62728; stroke-width: 1.5; stroke-linecap: square"/>
   </g>
   <g id="line2d_49">
    <path d="M 56.370825 63.567757 
L 61.363526 118.430122 
L 66.356226 143.34191 
L 71.348927 161.614878 
L 76.341627 177.680769 
L 81.334328 197.498192 
L 86.327028 214.682085 
L 91.319729 212.516981 
L 96.312429 237.186171 
L 101.30513 262.352521 
L 106.29783 267.00979 
L 111.290531 307.529762 
L 116.283231 326.342297 
L 121.275932 332.963148 
L 126.268632 336.823762 
L 131.261333 338.658519 
L 136.254033 340.624352 
L 141.246734 342.192379 
L 146.239434 343.442101 
L 151.232135 344.575974 
L 156.224835 345.598718 
L 161.217535 346.444553 
L 166.210236 347.036238 
L 171.202936 347.863589 
L 176.195637 348.499623 
L 181.188337 349.064409 
L 186.181038 349.634698 
L 191.173738 350.08495 
L 196.166439 350.491704 
L 201.159139 350.968208 
L 206.15184 351.368227 
L 211.14454 351.703638 
L 216.137241 352.066905 
L 221.129941 352.38938 
L 226.122642 352.715606 
L 231.115342 353.016205 
L 236.108043 353.251759 
L 241.100743 353.356026 
L 246.093444 353.719116 
L 251.086144 354.024272 
L 256.078845 354.228961 
L 261.071545 354.444951 
L 266.064245 354.641976 
L 271.056946 354.869004 
L 276.049646 355.054344 
L 281.042347 355.222031 
L 286.035047 355.396408 
L 291.027748 355.545891 
L 296.020448 355.718187 
L 301.013149 355.86022 
L 306.005849 355.997983 
L 310.99855 356.117711 
L 315.99125 356.268389 
L 320.983951 356.404393 
L 325.976651 356.514148 
L 330.969352 356.649637 
L 335.962052 356.750298 
L 340.954753 356.863788 
L 345.947453 356.969281 
L 350.940154 357.069697 
L 355.932854 357.168877 
L 360.925555 357.269687 
L 365.918255 357.358954 
L 370.910955 357.455777 
L 375.903656 357.543885 
L 380.896356 357.628312 
L 385.889057 357.706877 
L 390.881757 357.78459 
L 395.874458 357.867554 
L 400.867158 357.947328 
L 405.859859 358.018952 
L 410.852559 358.086649 
L 415.84526 358.159493 
L 420.83796 358.22747 
L 425.830661 358.29592 
L 430.823361 358.352805 
L 435.816062 358.418842 
L 440.808762 358.480461 
L 445.801463 358.544718 
L 450.794163 358.605168 
L 455.786864 358.663136 
L 460.779564 358.716065 
L 465.772265 358.77698 
L 470.764965 358.827031 
L 475.757665 358.877911 
L 480.750366 358.918582 
L 485.743066 358.983101 
L 490.735767 359.031773 
L 495.728467 359.075792 
L 500.721168 359.1188 
L 505.713868 359.162628 
L 510.706569 359.215774 
L 515.699269 359.255336 
L 520.69197 359.295636 
L 525.68467 359.341169 
L 530.677371 359.379743 
L 535.670071 359.42201 
L 540.662772 359.460742 
L 545.655472 359.498934 
L 550.648173 359.535834 
" clip-path="url(#p8cf6b087cb)" style="fill: none; stroke: #9467bd; stroke-width: 1.5; stroke-linecap: square"/>
   </g>
   <g id="line2d_50">
    <path d="M 56.370825 39.22358 
L 61.363526 72.924635 
L 66.356226 107.580435 
L 71.348927 124.786158 
L 76.341627 141.341478 
L 81.334328 146.199993 
L 86.327028 151.952063 
L 91.319729 170.094257 
L 96.312429 169.852087 
L 101.30513 176.981517 
L 106.29783 173.59855 
L 111.290531 170.702423 
L 116.283231 189.775544 
L 121.275932 203.174656 
L 126.268632 201.279465 
L 131.261333 211.696737 
L 136.254033 190.058894 
L 141.246734 198.200259 
L 146.239434 210.286743 
L 151.232135 180.944968 
L 156.224835 194.070783 
L 161.217535 190.360053 
L 166.210236 199.254553 
L 171.202936 205.238522 
L 176.195637 223.389335 
L 181.188337 229.957412 
L 186.181038 233.649598 
L 191.173738 251.640622 
L 196.166439 282.208747 
L 201.159139 286.841566 
L 206.15184 301.398135 
L 211.14454 299.071607 
L 216.137241 304.358899 
L 221.129941 275.628871 
L 226.122642 248.407618 
L 231.115342 216.125844 
L 236.108043 187.356617 
L 241.100743 195.144318 
L 246.093444 201.080622 
L 251.086144 214.916504 
L 256.078845 202.300928 
L 261.071545 229.604569 
L 266.064245 221.494993 
L 271.056946 245.503156 
L 276.049646 278.464641 
L 281.042347 319.340016 
L 286.035047 322.508171 
L 291.027748 324.582741 
L 296.020448 325.766401 
L 301.013149 326.594119 
L 306.005849 327.256373 
L 310.99855 327.787341 
L 315.99125 328.24246 
L 320.983951 328.617519 
L 325.976651 328.967719 
L 330.969352 329.266017 
L 335.962052 329.524787 
L 340.954753 329.789557 
L 345.947453 330.008163 
L 350.940154 330.217806 
L 355.932854 330.394124 
L 360.925555 330.601003 
L 365.918255 330.771302 
L 370.910955 330.938783 
L 375.903656 331.080344 
L 380.896356 331.208737 
L 385.889057 331.332142 
L 390.881757 331.448645 
L 395.874458 331.563815 
L 400.867158 331.6817 
L 405.859859 331.779382 
L 410.852559 331.882015 
L 415.84526 331.977482 
L 420.83796 332.061736 
L 425.830661 332.144264 
L 430.823361 332.221019 
L 435.816062 332.298696 
L 440.808762 332.367462 
L 445.801463 332.43825 
L 450.794163 332.502332 
L 455.786864 332.566258 
L 460.779564 332.625725 
L 465.772265 332.684021 
L 470.764965 332.741095 
L 475.757665 332.797584 
L 480.750366 332.851947 
L 485.743066 332.902866 
L 490.735767 332.953857 
L 495.728467 333.001725 
L 500.721168 333.046917 
L 505.713868 333.095304 
L 510.706569 333.141215 
L 515.699269 333.182059 
L 520.69197 333.223411 
L 525.68467 333.26379 
L 530.677371 333.302857 
L 535.670071 333.341806 
L 540.662772 333.376217 
L 545.655472 333.414924 
L 550.648173 333.449206 
" clip-path="url(#p8cf6b087cb)" style="fill: none; stroke: #8c564b; stroke-width: 1.5; stroke-linecap: square"/>
   </g>
   <g id="line2d_51">
    <path d="M 56.370825 77.702889 
L 61.363526 122.856359 
L 66.356226 140.591779 
L 71.348927 161.766116 
L 76.341627 184.332592 
L 81.334328 204.188258 
L 86.327028 219.727579 
L 91.319729 233.5862 
L 96.312429 243.175863 
L 101.30513 253.441142 
L 106.29783 261.124733 
L 111.290531 266.730794 
L 116.283231 270.390327 
L 121.275932 273.640035 
L 126.268632 278.300601 
L 131.261333 281.911484 
L 136.254033 284.656267 
L 141.246734 287.083257 
L 146.239434 290.079974 
L 151.232135 291.510932 
L 156.224835 293.566884 
L 161.217535 296.122881 
L 166.210236 297.891637 
L 171.202936 299.520828 
L 176.195637 301.36496 
L 181.188337 302.74916 
L 186.181038 303.792286 
L 191.173738 305.622891 
L 196.166439 307.063274 
L 201.159139 308.074707 
L 206.15184 309.463291 
L 211.14454 310.577717 
L 216.137241 311.680455 
L 221.129941 312.718451 
L 226.122642 313.63912 
L 231.115342 314.625352 
L 236.108043 315.728346 
L 241.100743 316.54022 
L 246.093444 317.265733 
L 251.086144 318.228309 
L 256.078845 318.91493 
L 261.071545 319.706502 
L 266.064245 320.49115 
L 271.056946 321.213187 
L 276.049646 321.814946 
L 281.042347 322.512424 
L 286.035047 323.19115 
L 291.027748 323.963194 
L 296.020448 324.35322 
L 301.013149 325.074059 
L 306.005849 325.669084 
L 310.99855 326.151955 
L 315.99125 326.718949 
L 320.983951 327.296366 
L 325.976651 327.748667 
L 330.969352 328.24341 
L 335.962052 328.740497 
L 340.954753 329.101622 
L 345.947453 329.685925 
L 350.940154 330.125806 
L 355.932854 330.603323 
L 360.925555 331.007258 
L 365.918255 331.458154 
L 370.910955 331.842182 
L 375.903656 332.178754 
L 380.896356 332.588838 
L 385.889057 332.988721 
L 390.881757 333.326611 
L 395.874458 333.637953 
L 400.867158 334.069852 
L 405.859859 334.354254 
L 410.852559 334.770989 
L 415.84526 335.041164 
L 420.83796 335.439099 
L 425.830661 335.692867 
L 430.823361 336.015856 
L 435.816062 336.363157 
L 440.808762 336.643452 
L 445.801463 336.913761 
L 450.794163 337.205636 
L 455.786864 337.479562 
L 460.779564 337.788323 
L 465.772265 338.016071 
L 470.764965 338.291603 
L 475.757665 338.561862 
L 480.750366 338.79371 
L 485.743066 339.061497 
L 490.735767 339.308968 
L 495.728467 339.553213 
L 500.721168 339.749957 
L 505.713868 339.988172 
L 510.706569 340.262222 
L 515.699269 340.466991 
L 520.69197 340.684636 
L 525.68467 340.872342 
L 530.677371 341.104835 
L 535.670071 341.319579 
L 540.662772 341.513918 
L 545.655472 341.709595 
L 550.648173 341.900137 
" clip-path="url(#p8cf6b087cb)" style="fill: none; stroke: #e377c2; stroke-width: 1.5; stroke-linecap: square"/>
   </g>
   <g id="line2d_52">
    <path d="M 56.370825 65.715044 
L 61.363526 119.30829 
L 66.356226 140.890687 
L 71.348927 165.079428 
L 76.341627 186.087369 
L 81.334328 211.4007 
L 86.327028 244.317744 
L 91.319729 268.017459 
L 96.312429 297.202438 
L 101.30513 314.034685 
L 106.29783 320.531677 
L 111.290531 324.25685 
L 116.283231 326.899009 
L 121.275932 329.038113 
L 126.268632 330.684195 
L 131.261333 332.064466 
L 136.254033 333.349526 
L 141.246734 334.479143 
L 146.239434 335.256312 
L 151.232135 336.234884 
L 156.224835 336.927991 
L 161.217535 337.608256 
L 166.210236 338.232433 
L 171.202936 338.820883 
L 176.195637 339.343302 
L 181.188337 339.793978 
L 186.181038 340.263049 
L 191.173738 340.715802 
L 196.166439 341.043991 
L 201.159139 341.442589 
L 206.15184 341.818282 
L 211.14454 342.018947 
L 216.137241 342.378813 
L 221.129941 342.737051 
L 226.122642 342.996814 
L 231.115342 343.256236 
L 236.108043 343.524346 
L 241.100743 343.731799 
L 246.093444 343.963055 
L 251.086144 344.199663 
L 256.078845 344.383552 
L 261.071545 344.560072 
L 266.064245 344.756186 
L 271.056946 344.912466 
L 276.049646 344.999109 
L 281.042347 345.235643 
L 286.035047 345.411094 
L 291.027748 345.567861 
L 296.020448 345.709337 
L 301.013149 345.856526 
L 306.005849 345.978287 
L 310.99855 346.114301 
L 315.99125 346.230035 
L 320.983951 346.359712 
L 325.976651 346.464135 
L 330.969352 346.572866 
L 335.962052 346.681957 
L 340.954753 346.781366 
L 345.947453 346.873849 
L 350.940154 346.974483 
L 355.932854 347.068156 
L 360.925555 347.157256 
L 365.918255 347.230485 
L 370.910955 347.332401 
L 375.903656 347.410234 
L 380.896356 347.486222 
L 385.889057 347.560034 
L 390.881757 347.641999 
L 395.874458 347.706598 
L 400.867158 347.778178 
L 405.859859 347.850476 
L 410.852559 347.914899 
L 415.84526 347.981756 
L 420.83796 348.041307 
L 425.830661 348.10261 
L 430.823361 348.161872 
L 435.816062 348.226546 
L 440.808762 348.278552 
L 445.801463 348.333244 
L 450.794163 348.381906 
L 455.786864 348.439433 
L 460.779564 348.492811 
L 465.772265 348.542287 
L 470.764965 348.579353 
L 475.757665 348.639428 
L 480.750366 348.684556 
L 485.743066 348.723654 
L 490.735767 348.767868 
L 495.728467 348.818226 
L 500.721168 348.862347 
L 505.713868 348.900443 
L 510.706569 348.945713 
L 515.699269 348.984209 
L 520.69197 349.023335 
L 525.68467 349.064564 
L 530.677371 349.102198 
L 535.670071 349.132201 
L 540.662772 349.161983 
L 545.655472 349.205682 
L 550.648173 349.244661 
" clip-path="url(#p8cf6b087cb)" style="fill: none; stroke: #bcbd22; stroke-width: 1.5; stroke-linecap: square"/>
   </g>
   <g id="line2d_53">
    <path d="M 56.370825 41.105449 
L 61.363526 83.730305 
L 66.356226 105.035489 
L 71.348927 133.182235 
L 76.341627 150.321071 
L 81.334328 162.385856 
L 86.327028 169.64542 
L 91.319729 192.502185 
L 96.312429 190.077091 
L 101.30513 197.210529 
L 106.29783 173.864423 
L 111.290531 187.439881 
L 116.283231 171.640253 
L 121.275932 200.683371 
L 126.268632 200.378833 
L 131.261333 194.867761 
L 136.254033 207.968928 
L 141.246734 186.952463 
L 146.239434 228.344163 
L 151.232135 253.859986 
L 156.224835 187.604731 
L 161.217535 195.82493 
L 166.210236 229.131893 
L 171.202936 218.76026 
L 176.195637 209.735716 
L 181.188337 206.914097 
L 186.181038 221.328112 
L 191.173738 229.660526 
L 196.166439 238.7656 
L 201.159139 243.87606 
L 206.15184 253.387041 
L 211.14454 245.755592 
L 216.137241 312.431982 
L 221.129941 321.730695 
L 226.122642 323.001191 
L 231.115342 323.686394 
L 236.108043 324.173531 
L 241.100743 324.542565 
L 246.093444 324.849154 
L 251.086144 325.122483 
L 256.078845 325.349001 
L 261.071545 325.525822 
L 266.064245 325.702546 
L 271.056946 325.83868 
L 276.049646 325.981481 
L 281.042347 326.102393 
L 286.035047 326.216703 
L 291.027748 326.323719 
L 296.020448 326.413593 
L 301.013149 326.503374 
L 306.005849 326.587206 
L 310.99855 326.661135 
L 315.99125 326.733522 
L 320.983951 326.80049 
L 325.976651 326.867926 
L 330.969352 326.945048 
L 335.962052 326.999644 
L 340.954753 327.059702 
L 345.947453 327.113429 
L 350.940154 327.165944 
L 355.932854 327.217344 
L 360.925555 327.265722 
L 365.918255 327.314076 
L 370.910955 327.361199 
L 375.903656 327.403409 
L 380.896356 327.445912 
L 385.889057 327.486445 
L 390.881757 327.524831 
L 395.874458 327.564017 
L 400.867158 327.600064 
L 405.859859 327.635488 
L 410.852559 327.670559 
L 415.84526 327.704155 
L 420.83796 327.736826 
L 425.830661 327.767256 
L 430.823361 327.798463 
L 435.816062 327.827184 
L 440.808762 327.858019 
L 445.801463 327.885728 
L 450.794163 327.912906 
L 455.786864 327.940368 
L 460.779564 327.967036 
L 465.772265 327.992952 
L 470.764965 328.024456 
L 475.757665 328.047173 
L 480.750366 328.07104 
L 485.743066 328.093706 
L 490.735767 328.116371 
L 495.728467 328.138147 
L 500.721168 328.161096 
L 505.713868 328.182287 
L 510.706569 328.203153 
L 515.699269 328.222393 
L 520.69197 328.242891 
L 525.68467 328.262341 
L 530.677371 328.281253 
L 535.670071 328.299152 
L 540.662772 328.318261 
L 545.655472 328.33521 
L 550.648173 328.352843 
" clip-path="url(#p8cf6b087cb)" style="fill: none; stroke: #17becf; stroke-width: 1.5; stroke-linecap: square"/>
   </g>
   <g id="patch_3">
    <path d="M 51.378125 384.158125 
L 51.378125 22.798125 
" style="fill: none; stroke: #000000; stroke-width: 0.8; stroke-linejoin: miter; stroke-linecap: square"/>
   </g>
   <g id="patch_4">
    <path d="M 555.640873 384.158125 
L 555.640873 22.798125 
" style="fill: none; stroke: #000000; stroke-width: 0.8; stroke-linejoin: miter; stroke-linecap: square"/>
   </g>
   <g id="patch_5">
    <path d="M 51.378125 384.158125 
L 555.640873 384.158125 
" style="fill: none; stroke: #000000; stroke-width: 0.8; stroke-linejoin: miter; stroke-linecap: square"/>
   </g>
   <g id="patch_6">
    <path d="M 51.378125 22.798125 
L 555.640873 22.798125 
" style="fill: none; stroke: #000000; stroke-width: 0.8; stroke-linejoin: miter; stroke-linecap: square"/>
   </g>
   <g id="text_13">
    <!-- Curvas de perda em relação as épocas -->
    <g transform="translate(186.779499 16.798125) scale(0.12 -0.12)">
     <defs>
      <path id="DejaVuSans-43" d="M 4122 4306 
L 4122 3641 
Q 3803 3938 3442 4084 
Q 3081 4231 2675 4231 
Q 1875 4231 1450 3742 
Q 1025 3253 1025 2328 
Q 1025 1406 1450 917 
Q 1875 428 2675 428 
Q 3081 428 3442 575 
Q 3803 722 4122 1019 
L 4122 359 
Q 3791 134 3420 21 
Q 3050 -91 2638 -91 
Q 1578 -91 968 557 
Q 359 1206 359 2328 
Q 359 3453 968 4101 
Q 1578 4750 2638 4750 
Q 3056 4750 3426 4639 
Q 3797 4528 4122 4306 
z
" transform="scale(0.015625)"/>
      <path id="DejaVuSans-75" d="M 544 1381 
L 544 3500 
L 1119 3500 
L 1119 1403 
Q 1119 906 1312 657 
Q 1506 409 1894 409 
Q 2359 409 2629 706 
Q 2900 1003 2900 1516 
L 2900 3500 
L 3475 3500 
L 3475 0 
L 2900 0 
L 2900 538 
Q 2691 219 2414 64 
Q 2138 -91 1772 -91 
Q 1169 -91 856 284 
Q 544 659 544 1381 
z
M 1991 3584 
L 1991 3584 
z
" transform="scale(0.015625)"/>
      <path id="DejaVuSans-72" d="M 2631 2963 
Q 2534 3019 2420 3045 
Q 2306 3072 2169 3072 
Q 1681 3072 1420 2755 
Q 1159 2438 1159 1844 
L 1159 0 
L 581 0 
L 581 3500 
L 1159 3500 
L 1159 2956 
Q 1341 3275 1631 3429 
Q 1922 3584 2338 3584 
Q 2397 3584 2469 3576 
Q 2541 3569 2628 3553 
L 2631 2963 
z
" transform="scale(0.015625)"/>
      <path id="DejaVuSans-76" d="M 191 3500 
L 800 3500 
L 1894 563 
L 2988 3500 
L 3597 3500 
L 2284 0 
L 1503 0 
L 191 3500 
z
" transform="scale(0.015625)"/>
      <path id="DejaVuSans-20" transform="scale(0.015625)"/>
      <path id="DejaVuSans-64" d="M 2906 2969 
L 2906 4863 
L 3481 4863 
L 3481 0 
L 2906 0 
L 2906 525 
Q 2725 213 2448 61 
Q 2172 -91 1784 -91 
Q 1150 -91 751 415 
Q 353 922 353 1747 
Q 353 2572 751 3078 
Q 1150 3584 1784 3584 
Q 2172 3584 2448 3432 
Q 2725 3281 2906 2969 
z
M 947 1747 
Q 947 1113 1208 752 
Q 1469 391 1925 391 
Q 2381 391 2643 752 
Q 2906 1113 2906 1747 
Q 2906 2381 2643 2742 
Q 2381 3103 1925 3103 
Q 1469 3103 1208 2742 
Q 947 2381 947 1747 
z
" transform="scale(0.015625)"/>
      <path id="DejaVuSans-65" d="M 3597 1894 
L 3597 1613 
L 953 1613 
Q 991 1019 1311 708 
Q 1631 397 2203 397 
Q 2534 397 2845 478 
Q 3156 559 3463 722 
L 3463 178 
Q 3153 47 2828 -22 
Q 2503 -91 2169 -91 
Q 1331 -91 842 396 
Q 353 884 353 1716 
Q 353 2575 817 3079 
Q 1281 3584 2069 3584 
Q 2775 3584 3186 3129 
Q 3597 2675 3597 1894 
z
M 3022 2063 
Q 3016 2534 2758 2815 
Q 2500 3097 2075 3097 
Q 1594 3097 1305 2825 
Q 1016 2553 972 2059 
L 3022 2063 
z
" transform="scale(0.015625)"/>
      <path id="DejaVuSans-6d" d="M 3328 2828 
Q 3544 3216 3844 3400 
Q 4144 3584 4550 3584 
Q 5097 3584 5394 3201 
Q 5691 2819 5691 2113 
L 5691 0 
L 5113 0 
L 5113 2094 
Q 5113 2597 4934 2840 
Q 4756 3084 4391 3084 
Q 3944 3084 3684 2787 
Q 3425 2491 3425 1978 
L 3425 0 
L 2847 0 
L 2847 2094 
Q 2847 2600 2669 2842 
Q 2491 3084 2119 3084 
Q 1678 3084 1418 2786 
Q 1159 2488 1159 1978 
L 1159 0 
L 581 0 
L 581 3500 
L 1159 3500 
L 1159 2956 
Q 1356 3278 1631 3431 
Q 1906 3584 2284 3584 
Q 2666 3584 2933 3390 
Q 3200 3197 3328 2828 
z
" transform="scale(0.015625)"/>
      <path id="DejaVuSans-6c" d="M 603 4863 
L 1178 4863 
L 1178 0 
L 603 0 
L 603 4863 
z
" transform="scale(0.015625)"/>
      <path id="DejaVuSans-e7" d="M 3122 3366 
L 3122 2828 
Q 2878 2963 2633 3030 
Q 2388 3097 2138 3097 
Q 1578 3097 1268 2742 
Q 959 2388 959 1747 
Q 959 1106 1268 751 
Q 1578 397 2138 397 
Q 2388 397 2633 464 
Q 2878 531 3122 666 
L 3122 134 
Q 2881 22 2623 -34 
Q 2366 -91 2075 -91 
Q 1284 -91 818 406 
Q 353 903 353 1747 
Q 353 2603 823 3093 
Q 1294 3584 2113 3584 
Q 2378 3584 2631 3529 
Q 2884 3475 3122 3366 
z
M 2311 0 
Q 2482 -194 2566 -358 
Q 2651 -522 2651 -672 
Q 2651 -950 2463 -1092 
Q 2276 -1234 1907 -1234 
Q 1764 -1234 1628 -1215 
Q 1492 -1197 1357 -1159 
L 1357 -750 
Q 1464 -803 1579 -826 
Q 1695 -850 1842 -850 
Q 2026 -850 2120 -775 
Q 2214 -700 2214 -556 
Q 2214 -463 2146 -327 
Q 2079 -191 1939 0 
L 2311 0 
z
" transform="scale(0.015625)"/>
      <path id="DejaVuSans-e3" d="M 2194 1759 
Q 1497 1759 1228 1600 
Q 959 1441 959 1056 
Q 959 750 1161 570 
Q 1363 391 1709 391 
Q 2188 391 2477 730 
Q 2766 1069 2766 1631 
L 2766 1759 
L 2194 1759 
z
M 3341 1997 
L 3341 0 
L 2766 0 
L 2766 531 
Q 2569 213 2275 61 
Q 1981 -91 1556 -91 
Q 1019 -91 701 211 
Q 384 513 384 1019 
Q 384 1609 779 1909 
Q 1175 2209 1959 2209 
L 2766 2209 
L 2766 2266 
Q 2766 2663 2505 2880 
Q 2244 3097 1772 3097 
Q 1472 3097 1187 3025 
Q 903 2953 641 2809 
L 641 3341 
Q 956 3463 1253 3523 
Q 1550 3584 1831 3584 
Q 2591 3584 2966 3190 
Q 3341 2797 3341 1997 
z
M 1844 4281 
L 1665 4453 
Q 1597 4516 1545 4545 
Q 1494 4575 1453 4575 
Q 1334 4575 1278 4461 
Q 1222 4347 1215 4091 
L 825 4091 
Q 831 4513 990 4742 
Q 1150 4972 1434 4972 
Q 1553 4972 1653 4928 
Q 1753 4884 1869 4781 
L 2047 4609 
Q 2115 4547 2167 4517 
Q 2219 4488 2259 4488 
Q 2378 4488 2434 4602 
Q 2490 4716 2497 4972 
L 2887 4972 
Q 2881 4550 2721 4320 
Q 2562 4091 2278 4091 
Q 2159 4091 2059 4134 
Q 1959 4178 1844 4281 
z
" transform="scale(0.015625)"/>
      <path id="DejaVuSans-e9" d="M 3597 1894 
L 3597 1613 
L 953 1613 
Q 991 1019 1311 708 
Q 1631 397 2203 397 
Q 2534 397 2845 478 
Q 3156 559 3463 722 
L 3463 178 
Q 3153 47 2828 -22 
Q 2503 -91 2169 -91 
Q 1331 -91 842 396 
Q 353 884 353 1716 
Q 353 2575 817 3079 
Q 1281 3584 2069 3584 
Q 2775 3584 3186 3129 
Q 3597 2675 3597 1894 
z
M 3022 2063 
Q 3016 2534 2758 2815 
Q 2500 3097 2075 3097 
Q 1594 3097 1305 2825 
Q 1016 2553 972 2059 
L 3022 2063 
z
M 2466 5119 
L 3088 5119 
L 2070 3944 
L 1591 3944 
L 2466 5119 
z
" transform="scale(0.015625)"/>
     </defs>
     <use xlink:href="#DejaVuSans-43"/>
     <use xlink:href="#DejaVuSans-75" transform="translate(69.824219 0)"/>
     <use xlink:href="#DejaVuSans-72" transform="translate(133.203125 0)"/>
     <use xlink:href="#DejaVuSans-76" transform="translate(174.316406 0)"/>
     <use xlink:href="#DejaVuSans-61" transform="translate(233.496094 0)"/>
     <use xlink:href="#DejaVuSans-73" transform="translate(294.775391 0)"/>
     <use xlink:href="#DejaVuSans-20" transform="translate(346.875 0)"/>
     <use xlink:href="#DejaVuSans-64" transform="translate(378.662109 0)"/>
     <use xlink:href="#DejaVuSans-65" transform="translate(442.138672 0)"/>
     <use xlink:href="#DejaVuSans-20" transform="translate(503.662109 0)"/>
     <use xlink:href="#DejaVuSans-70" transform="translate(535.449219 0)"/>
     <use xlink:href="#DejaVuSans-65" transform="translate(598.925781 0)"/>
     <use xlink:href="#DejaVuSans-72" transform="translate(660.449219 0)"/>
     <use xlink:href="#DejaVuSans-64" transform="translate(699.8125 0)"/>
     <use xlink:href="#DejaVuSans-61" transform="translate(763.289062 0)"/>
     <use xlink:href="#DejaVuSans-20" transform="translate(824.568359 0)"/>
     <use xlink:href="#DejaVuSans-65" transform="translate(856.355469 0)"/>
     <use xlink:href="#DejaVuSans-6d" transform="translate(917.878906 0)"/>
     <use xlink:href="#DejaVuSans-20" transform="translate(1015.291016 0)"/>
     <use xlink:href="#DejaVuSans-72" transform="translate(1047.078125 0)"/>
     <use xlink:href="#DejaVuSans-65" transform="translate(1085.941406 0)"/>
     <use xlink:href="#DejaVuSans-6c" transform="translate(1147.464844 0)"/>
     <use xlink:href="#DejaVuSans-61" transform="translate(1175.248047 0)"/>
     <use xlink:href="#DejaVuSans-e7" transform="translate(1236.527344 0)"/>
     <use xlink:href="#DejaVuSans-e3" transform="translate(1291.507812 0)"/>
     <use xlink:href="#DejaVuSans-6f" transform="translate(1352.787109 0)"/>
     <use xlink:href="#DejaVuSans-20" transform="translate(1413.96875 0)"/>
     <use xlink:href="#DejaVuSans-61" transform="translate(1445.755859 0)"/>
     <use xlink:href="#DejaVuSans-73" transform="translate(1507.035156 0)"/>
     <use xlink:href="#DejaVuSans-20" transform="translate(1559.134766 0)"/>
     <use xlink:href="#DejaVuSans-e9" transform="translate(1590.921875 0)"/>
     <use xlink:href="#DejaVuSans-70" transform="translate(1652.445312 0)"/>
     <use xlink:href="#DejaVuSans-6f" transform="translate(1715.921875 0)"/>
     <use xlink:href="#DejaVuSans-63" transform="translate(1777.103516 0)"/>
     <use xlink:href="#DejaVuSans-61" transform="translate(1832.083984 0)"/>
     <use xlink:href="#DejaVuSans-73" transform="translate(1893.363281 0)"/>
    </g>
   </g>
   <g id="legend_1">
    <g id="patch_7">
     <path d="M 438.862748 177.579375 
L 548.640873 177.579375 
Q 550.640873 177.579375 550.640873 175.579375 
L 550.640873 29.798125 
Q 550.640873 27.798125 548.640873 27.798125 
L 438.862748 27.798125 
Q 436.862748 27.798125 436.862748 29.798125 
L 436.862748 175.579375 
Q 436.862748 177.579375 438.862748 177.579375 
z
" style="fill: #ffffff; opacity: 0.8; stroke: #cccccc; stroke-linejoin: miter"/>
    </g>
    <g id="text_14">
     <!-- Arquitetura -->
     <g transform="translate(465.346342 39.396562) scale(0.1 -0.1)">
      <defs>
       <path id="DejaVuSans-41" d="M 2188 4044 
L 1331 1722 
L 3047 1722 
L 2188 4044 
z
M 1831 4666 
L 2547 4666 
L 4325 0 
L 3669 0 
L 3244 1197 
L 1141 1197 
L 716 0 
L 50 0 
L 1831 4666 
z
" transform="scale(0.015625)"/>
       <path id="DejaVuSans-71" d="M 947 1747 
Q 947 1113 1208 752 
Q 1469 391 1925 391 
Q 2381 391 2643 752 
Q 2906 1113 2906 1747 
Q 2906 2381 2643 2742 
Q 2381 3103 1925 3103 
Q 1469 3103 1208 2742 
Q 947 2381 947 1747 
z
M 2906 525 
Q 2725 213 2448 61 
Q 2172 -91 1784 -91 
Q 1150 -91 751 415 
Q 353 922 353 1747 
Q 353 2572 751 3078 
Q 1150 3584 1784 3584 
Q 2172 3584 2448 3432 
Q 2725 3281 2906 2969 
L 2906 3500 
L 3481 3500 
L 3481 -1331 
L 2906 -1331 
L 2906 525 
z
" transform="scale(0.015625)"/>
       <path id="DejaVuSans-69" d="M 603 3500 
L 1178 3500 
L 1178 0 
L 603 0 
L 603 3500 
z
M 603 4863 
L 1178 4863 
L 1178 4134 
L 603 4134 
L 603 4863 
z
" transform="scale(0.015625)"/>
       <path id="DejaVuSans-74" d="M 1172 4494 
L 1172 3500 
L 2356 3500 
L 2356 3053 
L 1172 3053 
L 1172 1153 
Q 1172 725 1289 603 
Q 1406 481 1766 481 
L 2356 481 
L 2356 0 
L 1766 0 
Q 1100 0 847 248 
Q 594 497 594 1153 
L 594 3053 
L 172 3053 
L 172 3500 
L 594 3500 
L 594 4494 
L 1172 4494 
z
" transform="scale(0.015625)"/>
      </defs>
      <use xlink:href="#DejaVuSans-41"/>
      <use xlink:href="#DejaVuSans-72" transform="translate(68.408203 0)"/>
      <use xlink:href="#DejaVuSans-71" transform="translate(107.771484 0)"/>
      <use xlink:href="#DejaVuSans-75" transform="translate(171.248047 0)"/>
      <use xlink:href="#DejaVuSans-69" transform="translate(234.626953 0)"/>
      <use xlink:href="#DejaVuSans-74" transform="translate(262.410156 0)"/>
      <use xlink:href="#DejaVuSans-65" transform="translate(301.619141 0)"/>
      <use xlink:href="#DejaVuSans-74" transform="translate(363.142578 0)"/>
      <use xlink:href="#DejaVuSans-75" transform="translate(402.351562 0)"/>
      <use xlink:href="#DejaVuSans-72" transform="translate(465.730469 0)"/>
      <use xlink:href="#DejaVuSans-61" transform="translate(506.84375 0)"/>
     </g>
    </g>
    <g id="line2d_54">
     <path d="M 440.862748 50.574687 
L 450.862748 50.574687 
L 460.862748 50.574687 
" style="fill: none; stroke: #1f77b4; stroke-width: 1.5; stroke-linecap: square"/>
    </g>
    <g id="text_15">
     <!-- 196 -->
     <g transform="translate(468.862748 54.074687) scale(0.1 -0.1)">
      <defs>
       <path id="DejaVuSans-39" d="M 703 97 
L 703 672 
Q 941 559 1184 500 
Q 1428 441 1663 441 
Q 2288 441 2617 861 
Q 2947 1281 2994 2138 
Q 2813 1869 2534 1725 
Q 2256 1581 1919 1581 
Q 1219 1581 811 2004 
Q 403 2428 403 3163 
Q 403 3881 828 4315 
Q 1253 4750 1959 4750 
Q 2769 4750 3195 4129 
Q 3622 3509 3622 2328 
Q 3622 1225 3098 567 
Q 2575 -91 1691 -91 
Q 1453 -91 1209 -44 
Q 966 3 703 97 
z
M 1959 2075 
Q 2384 2075 2632 2365 
Q 2881 2656 2881 3163 
Q 2881 3666 2632 3958 
Q 2384 4250 1959 4250 
Q 1534 4250 1286 3958 
Q 1038 3666 1038 3163 
Q 1038 2656 1286 2365 
Q 1534 2075 1959 2075 
z
" transform="scale(0.015625)"/>
      </defs>
      <use xlink:href="#DejaVuSans-31"/>
      <use xlink:href="#DejaVuSans-39" transform="translate(63.623047 0)"/>
      <use xlink:href="#DejaVuSans-36" transform="translate(127.246094 0)"/>
     </g>
    </g>
    <g id="line2d_55">
     <path d="M 440.862748 65.252813 
L 450.862748 65.252813 
L 460.862748 65.252813 
" style="fill: none; stroke: #ff7f0e; stroke-width: 1.5; stroke-linecap: square"/>
    </g>
    <g id="text_16">
     <!-- (196, 98) -->
     <g transform="translate(468.862748 68.752813) scale(0.1 -0.1)">
      <defs>
       <path id="DejaVuSans-28" d="M 1984 4856 
Q 1566 4138 1362 3434 
Q 1159 2731 1159 2009 
Q 1159 1288 1364 580 
Q 1569 -128 1984 -844 
L 1484 -844 
Q 1016 -109 783 600 
Q 550 1309 550 2009 
Q 550 2706 781 3412 
Q 1013 4119 1484 4856 
L 1984 4856 
z
" transform="scale(0.015625)"/>
       <path id="DejaVuSans-2c" d="M 750 794 
L 1409 794 
L 1409 256 
L 897 -744 
L 494 -744 
L 750 256 
L 750 794 
z
" transform="scale(0.015625)"/>
       <path id="DejaVuSans-29" d="M 513 4856 
L 1013 4856 
Q 1481 4119 1714 3412 
Q 1947 2706 1947 2009 
Q 1947 1309 1714 600 
Q 1481 -109 1013 -844 
L 513 -844 
Q 928 -128 1133 580 
Q 1338 1288 1338 2009 
Q 1338 2731 1133 3434 
Q 928 4138 513 4856 
z
" transform="scale(0.015625)"/>
      </defs>
      <use xlink:href="#DejaVuSans-28"/>
      <use xlink:href="#DejaVuSans-31" transform="translate(39.013672 0)"/>
      <use xlink:href="#DejaVuSans-39" transform="translate(102.636719 0)"/>
      <use xlink:href="#DejaVuSans-36" transform="translate(166.259766 0)"/>
      <use xlink:href="#DejaVuSans-2c" transform="translate(229.882812 0)"/>
      <use xlink:href="#DejaVuSans-20" transform="translate(261.669922 0)"/>
      <use xlink:href="#DejaVuSans-39" transform="translate(293.457031 0)"/>
      <use xlink:href="#DejaVuSans-38" transform="translate(357.080078 0)"/>
      <use xlink:href="#DejaVuSans-29" transform="translate(420.703125 0)"/>
     </g>
    </g>
    <g id="line2d_56">
     <path d="M 440.862748 79.930937 
L 450.862748 79.930937 
L 460.862748 79.930937 
" style="fill: none; stroke: #2ca02c; stroke-width: 1.5; stroke-linecap: square"/>
    </g>
    <g id="text_17">
     <!-- (196, 98, 49) -->
     <g transform="translate(468.862748 83.430937) scale(0.1 -0.1)">
      <use xlink:href="#DejaVuSans-28"/>
      <use xlink:href="#DejaVuSans-31" transform="translate(39.013672 0)"/>
      <use xlink:href="#DejaVuSans-39" transform="translate(102.636719 0)"/>
      <use xlink:href="#DejaVuSans-36" transform="translate(166.259766 0)"/>
      <use xlink:href="#DejaVuSans-2c" transform="translate(229.882812 0)"/>
      <use xlink:href="#DejaVuSans-20" transform="translate(261.669922 0)"/>
      <use xlink:href="#DejaVuSans-39" transform="translate(293.457031 0)"/>
      <use xlink:href="#DejaVuSans-38" transform="translate(357.080078 0)"/>
      <use xlink:href="#DejaVuSans-2c" transform="translate(420.703125 0)"/>
      <use xlink:href="#DejaVuSans-20" transform="translate(452.490234 0)"/>
      <use xlink:href="#DejaVuSans-34" transform="translate(484.277344 0)"/>
      <use xlink:href="#DejaVuSans-39" transform="translate(547.900391 0)"/>
      <use xlink:href="#DejaVuSans-29" transform="translate(611.523438 0)"/>
     </g>
    </g>
    <g id="line2d_57">
     <path d="M 440.862748 94.609062 
L 450.862748 94.609062 
L 460.862748 94.609062 
" style="fill: none; stroke: #d62728; stroke-width: 1.5; stroke-linecap: square"/>
    </g>
    <g id="text_18">
     <!-- 392 -->
     <g transform="translate(468.862748 98.109062) scale(0.1 -0.1)">
      <use xlink:href="#DejaVuSans-33"/>
      <use xlink:href="#DejaVuSans-39" transform="translate(63.623047 0)"/>
      <use xlink:href="#DejaVuSans-32" transform="translate(127.246094 0)"/>
     </g>
    </g>
    <g id="line2d_58">
     <path d="M 440.862748 109.287187 
L 450.862748 109.287187 
L 460.862748 109.287187 
" style="fill: none; stroke: #9467bd; stroke-width: 1.5; stroke-linecap: square"/>
    </g>
    <g id="text_19">
     <!-- (392, 196) -->
     <g transform="translate(468.862748 112.787187) scale(0.1 -0.1)">
      <use xlink:href="#DejaVuSans-28"/>
      <use xlink:href="#DejaVuSans-33" transform="translate(39.013672 0)"/>
      <use xlink:href="#DejaVuSans-39" transform="translate(102.636719 0)"/>
      <use xlink:href="#DejaVuSans-32" transform="translate(166.259766 0)"/>
      <use xlink:href="#DejaVuSans-2c" transform="translate(229.882812 0)"/>
      <use xlink:href="#DejaVuSans-20" transform="translate(261.669922 0)"/>
      <use xlink:href="#DejaVuSans-31" transform="translate(293.457031 0)"/>
      <use xlink:href="#DejaVuSans-39" transform="translate(357.080078 0)"/>
      <use xlink:href="#DejaVuSans-36" transform="translate(420.703125 0)"/>
      <use xlink:href="#DejaVuSans-29" transform="translate(484.326172 0)"/>
     </g>
    </g>
    <g id="line2d_59">
     <path d="M 440.862748 123.965312 
L 450.862748 123.965312 
L 460.862748 123.965312 
" style="fill: none; stroke: #8c564b; stroke-width: 1.5; stroke-linecap: square"/>
    </g>
    <g id="text_20">
     <!-- (392, 196, 98) -->
     <g transform="translate(468.862748 127.465312) scale(0.1 -0.1)">
      <use xlink:href="#DejaVuSans-28"/>
      <use xlink:href="#DejaVuSans-33" transform="translate(39.013672 0)"/>
      <use xlink:href="#DejaVuSans-39" transform="translate(102.636719 0)"/>
      <use xlink:href="#DejaVuSans-32" transform="translate(166.259766 0)"/>
      <use xlink:href="#DejaVuSans-2c" transform="translate(229.882812 0)"/>
      <use xlink:href="#DejaVuSans-20" transform="translate(261.669922 0)"/>
      <use xlink:href="#DejaVuSans-31" transform="translate(293.457031 0)"/>
      <use xlink:href="#DejaVuSans-39" transform="translate(357.080078 0)"/>
      <use xlink:href="#DejaVuSans-36" transform="translate(420.703125 0)"/>
      <use xlink:href="#DejaVuSans-2c" transform="translate(484.326172 0)"/>
      <use xlink:href="#DejaVuSans-20" transform="translate(516.113281 0)"/>
      <use xlink:href="#DejaVuSans-39" transform="translate(547.900391 0)"/>
      <use xlink:href="#DejaVuSans-38" transform="translate(611.523438 0)"/>
      <use xlink:href="#DejaVuSans-29" transform="translate(675.146484 0)"/>
     </g>
    </g>
    <g id="line2d_60">
     <path d="M 440.862748 138.643438 
L 450.862748 138.643438 
L 460.862748 138.643438 
" style="fill: none; stroke: #e377c2; stroke-width: 1.5; stroke-linecap: square"/>
    </g>
    <g id="text_21">
     <!-- 784 -->
     <g transform="translate(468.862748 142.143438) scale(0.1 -0.1)">
      <defs>
       <path id="DejaVuSans-37" d="M 525 4666 
L 3525 4666 
L 3525 4397 
L 1831 0 
L 1172 0 
L 2766 4134 
L 525 4134 
L 525 4666 
z
" transform="scale(0.015625)"/>
      </defs>
      <use xlink:href="#DejaVuSans-37"/>
      <use xlink:href="#DejaVuSans-38" transform="translate(63.623047 0)"/>
      <use xlink:href="#DejaVuSans-34" transform="translate(127.246094 0)"/>
     </g>
    </g>
    <g id="line2d_61">
     <path d="M 440.862748 153.321562 
L 450.862748 153.321562 
L 460.862748 153.321562 
" style="fill: none; stroke: #bcbd22; stroke-width: 1.5; stroke-linecap: square"/>
    </g>
    <g id="text_22">
     <!-- (784, 392) -->
     <g transform="translate(468.862748 156.821562) scale(0.1 -0.1)">
      <use xlink:href="#DejaVuSans-28"/>
      <use xlink:href="#DejaVuSans-37" transform="translate(39.013672 0)"/>
      <use xlink:href="#DejaVuSans-38" transform="translate(102.636719 0)"/>
      <use xlink:href="#DejaVuSans-34" transform="translate(166.259766 0)"/>
      <use xlink:href="#DejaVuSans-2c" transform="translate(229.882812 0)"/>
      <use xlink:href="#DejaVuSans-20" transform="translate(261.669922 0)"/>
      <use xlink:href="#DejaVuSans-33" transform="translate(293.457031 0)"/>
      <use xlink:href="#DejaVuSans-39" transform="translate(357.080078 0)"/>
      <use xlink:href="#DejaVuSans-32" transform="translate(420.703125 0)"/>
      <use xlink:href="#DejaVuSans-29" transform="translate(484.326172 0)"/>
     </g>
    </g>
    <g id="line2d_62">
     <path d="M 440.862748 167.999687 
L 450.862748 167.999687 
L 460.862748 167.999687 
" style="fill: none; stroke: #17becf; stroke-width: 1.5; stroke-linecap: square"/>
    </g>
    <g id="text_23">
     <!-- (784, 392, 196) -->
     <g transform="translate(468.862748 171.499687) scale(0.1 -0.1)">
      <use xlink:href="#DejaVuSans-28"/>
      <use xlink:href="#DejaVuSans-37" transform="translate(39.013672 0)"/>
      <use xlink:href="#DejaVuSans-38" transform="translate(102.636719 0)"/>
      <use xlink:href="#DejaVuSans-34" transform="translate(166.259766 0)"/>
      <use xlink:href="#DejaVuSans-2c" transform="translate(229.882812 0)"/>
      <use xlink:href="#DejaVuSans-20" transform="translate(261.669922 0)"/>
      <use xlink:href="#DejaVuSans-33" transform="translate(293.457031 0)"/>
      <use xlink:href="#DejaVuSans-39" transform="translate(357.080078 0)"/>
      <use xlink:href="#DejaVuSans-32" transform="translate(420.703125 0)"/>
      <use xlink:href="#DejaVuSans-2c" transform="translate(484.326172 0)"/>
      <use xlink:href="#DejaVuSans-20" transform="translate(516.113281 0)"/>
      <use xlink:href="#DejaVuSans-31" transform="translate(547.900391 0)"/>
      <use xlink:href="#DejaVuSans-39" transform="translate(611.523438 0)"/>
      <use xlink:href="#DejaVuSans-36" transform="translate(675.146484 0)"/>
      <use xlink:href="#DejaVuSans-29" transform="translate(738.769531 0)"/>
     </g>
    </g>
   </g>
  </g>
 </g>
 <defs>
  <clipPath id="p8cf6b087cb">
   <rect x="51.378125" y="22.798125" width="504.262748" height="361.36"/>
  </clipPath>
 </defs>
</svg>
